# xmcd
#
# Track frame offsets:
#	150
#	37468
#	60313
#	97028
#	116188
#	134875
#	155837
#	177290
#	209685
#	231263
#	258777
#	285242
#
# Disc length: 4259 seconds
#
# Revision: 2
# Processed by: cddbd v1.5.2PL0 Copyright (c) Steve Scherf et al.
# Submitted via: dBpowerAMP V4.0
#
DISCID=bc10a10c
DTITLE=Various Artist - Gospel's Greatest Hits - Vol. III
DYEAR=1900
DGENRE=Gospel
TTITLE0=Order My Steps
TTITLE1=We Need to Hear From You
TTITLE2=Take a Trip
TTITLE3=Lost Without You
TTITLE4=God is in Control
TTITLE5=Call Him Up
TTITLE6=Work It Out
TTITLE7=He is God Alone
TTITLE8=Running Back to You
TTITLE9=Perfect Praise
TTITLE10=Anticipation
TTITLE11=New Life
EXTD=Gospel's Greatest Women
EXTT0=
EXTT1=
EXTT2=
EXTT3=
EXTT4=
EXTT5=
EXTT6=
EXTT7=
EXTT8=
EXTT9=
EXTT10=
EXTT11=
PLAYORDER=
